<svg id="Capa_1" data-name="Capa 1" xmlns="http://www.w3.org/2000/svg" viewBox="0 0 500 500"><defs><style>.cls-1{fill:#11700e;}.cls-2{fill:#c69c6d;}.cls-3{fill:#e8e8e8;}</style></defs><path class="cls-1" d="M110.21,232.93c-2.59,5.25-7.35,5.36-7.82,8.78-1.17,8.57,27.05,20.09,54.39,23.91,2.3.32,44.6,6,49.36-4.12S172.23,238.91,173.91,217c.68-9,8.07-19.17,18.13-21.44,21.27-4.79,43.05,28.54,54.39,23.91,6.17-2.52,1.82-13.26,3-50.29.75-23,2.78-29.5,5-34.63,7.14-16.2,17.47-21.07,15.11-26.38-4.72-10.6-43.21-12.45-73.53-3.29-20.19,6.09-16,19.25-40.53,21.72-19.18,1.94-23.87,16.5-34.91,33.8-13.61,21.33-19.75,39.41-16.46,49.47C106.81,217.93,114.13,225,110.21,232.93Z"/><path class="cls-2" d="M273.92,371.2l-11,1.38c-4,.5-6.84,3.68-6.09,6.82l0,.19c1.11,4.67-5.36,8.55-10.33,6.2l-.94-.45a6.87,6.87,0,0,0-.68-.27l-19-6.6a5.08,5.08,0,0,1-3.68-4.54,13.59,13.59,0,0,0-1-4.8c-2.54-6.15-9.78-10.92-17.85-11.74-10.5-1.05-15.89,5.25-20.75,3.17-6.4-2.74-5.65-17.41,4.34-24.16,9.4-6.35,21.38-1.94,26.13-7.25,6.05-6.77-8.62-19.3-4.45-22.18,3-2,9.61,4.66,21.45,4.36,12.62-.31,15.65-8.19,32.46-12.85,17.55-4.87,24.93.75,33.38-4,4.45-2.52,8.88-7.76,9-19.78,0-4.21,5.64-7.19,10.12-5.35,6.15,2.54,12.89,4.68,15.89,9.29a4.34,4.34,0,0,1,.69,2.25c.24,10.87,35.86-.09,25.46,31.66a5.51,5.51,0,0,1-.78,1.5L320.4,363.2a7.62,7.62,0,0,1-5.22,2.88Q294.54,368.62,273.92,371.2Z"/><path class="cls-3" d="M299.89,145.88c-1.52.18-2.21-.71-3-.36-2.07.87-.66,7.76,2.33,13.48.25.48,4.92,9.31,7.83,8.92s.25-9.4,5.35-11.9a7.25,7.25,0,0,1,7.3.72c4,3.45-.29,11.91,2.32,13.48,1.43.86,3.2-1.35,11.58-5.88,5.22-2.82,6.93-3.27,8.39-3.49,4.59-.72,7.12.63,8-.5,1.69-2.27-3.3-9.87-9.58-14.5-4.19-3.08-6.52-.59-10.5-5-3.12-3.42-7-2.45-12.4-2.34-6.63.14-11.51,1.29-13.27,3.21C302.74,143.31,302.21,145.61,299.89,145.88Z"/><path class="cls-3" d="M335.25,167.8c1.3-.73,2.35-.17,2.94-.79,1.46-1.56-3-7.3-8.43-11.4-.45-.34-8.83-6.64-11.3-5.2s4.17,8.63.7,12.79a7.05,7.05,0,0,1-7,2.06c-5.3-1.64-5.32-10.94-8.43-11.4-1.7-.25-2.27,2.42-7.77,9.64-3.42,4.5-4.77,5.54-6,6.28-3.84,2.35-6.77,2.06-7,3.41-.48,2.69,7.62,7.75,15.5,9.63,5.24,1.25,6.2-1.88,11.87.62,4.44,1.95,7.51-.37,12.36-2.47,6-2.58,9.86-5.43,10.57-7.84C333.86,171.2,333.27,168.91,335.25,167.8Z"/><path class="cls-3" d="M307.44,139.66l-.93-4.55a1.93,1.93,0,0,0-2.42-1.31l-.86.23a1.78,1.78,0,0,1-2.33-2.18l.77-1.92a1.09,1.09,0,0,0,.05-.17c.63-2.27,1.25-4.53,1.87-6.8a1.79,1.79,0,0,1,1.6-1.27,4.72,4.72,0,0,0,1.57-.4c2.12-1,3.63-3.53,3.7-6.35.09-3.67-2.29-5.48-1.68-7.19.8-2.26,6-2.16,8.7,1.25,2.51,3.2,1.27,7.42,3.28,9,2.57,2,6.63-3.22,7.77-1.79.8,1-1.4,3.39-1,7.51.45,4.4,3.33,5.37,5.44,11.17,2.21,6.06.4,8.69,2.33,11.58,1.07,1.6,3.2,3.17,8,2.88a1.75,1.75,0,0,1,1.94,2.26c-.92,2.22-1.39,5-2.87,6.48a2,2,0,0,1-1.85.51c-4.5-1-11.83-5.69-16.08-6.35a2.11,2.11,0,0,0-.75,0l-11.1,2.43a1.91,1.91,0,0,1-2.32-1.33Q308.86,146.53,307.44,139.66Z"/><path class="cls-3" d="M342.74,141.46c-.08,1.54-.15,3.08-.23,4.62a1.81,1.81,0,0,0,2,1.75l.89-.05a1.7,1.7,0,0,1,1.73,2.59l-1.23,1.72a1.19,1.19,0,0,0-.09.15l-3.52,6.26a1.91,1.91,0,0,1-1.88.93,4.66,4.66,0,0,0-1.64.08,7.62,7.62,0,0,0-5.18,5.45c-1,3.56.86,5.8-.16,7.35-1.35,2-6.43.91-8.18-2.94-1.64-3.62.63-7.49-.94-9.44-2-2.49-7.27,1.82-8,.21-.53-1.14,2.21-3,2.83-7.14.66-4.37-1.91-5.89-2.51-12-.64-6.34,1.78-8.56.62-11.75-.64-1.78-2.33-3.72-7-4.39a1.65,1.65,0,0,1-1.32-2.58c1.44-2,2.6-4.61,4.41-5.75a2.08,2.08,0,0,1,1.94-.13c4.13,1.85,10.1,7.88,14.08,9.37a1.88,1.88,0,0,0,.74.11l11.43-.17a1.79,1.79,0,0,1,1.93,1.76Q343.07,134.48,342.74,141.46Z"/></svg>