<svg xmlns="http://www.w3.org/2000/svg" viewBox="0 0 210.32 250.41"><defs><style>.cls-1{fill:#512d00;}.cls-2{fill:#ffdabd;}.cls-3{fill:#fffffe;}.cls-4{fill:none;stroke:#bababa;}.cls-4,.cls-5{stroke-miterlimit:10;stroke-width:2px;}.cls-5{fill:#969696;stroke:#969696;}.cls-6{fill:#e8e8e8;}.cls-7{fill:#fff;}.cls-8{fill:#ccaf97;}.cls-9{fill:#8f4900;}.cls-10{fill:#575048;}.cls-11{fill:#ffa6b9;}</style></defs><g id="Capa_2" data-name="Capa 2"><g id="Capa_3" data-name="Capa 3"><path class="cls-1" d="M96.26,7.5c-21.52,12.82-32,40.34-27.21,51.12a26.6,26.6,0,0,1,3,13c-.2,3.83-1.22,4.32-1.35,7.58-.3,7.52,5,10.11,5.77,15.66,1,6.89-6,10.39-13.19,20.62-10.34,14.61-14.28,33.15-9.9,36.27,2.17,1.55,4.57-2,15.67-3.29,3-.36,2.86-.12,11.54-.83,6.44-.52,6.65-.66,9.9-.82a123.53,123.53,0,0,1,12.36,0c5.64.27,7.25.73,12.44,1.2a145.29,145.29,0,0,0,16.42.45c16.11-.25,16.28-2.74,26.39-2.48,13.15.34,14.7,4.6,32.15,5.77,14,.94,16.61-.81,17.72-2,6-6.55-1.35-22.1-2.05-23.55-7.59-15.58-19.82-16.75-19.79-26.38,0-8,8.42-11.29,6.6-19.79-1-4.48-3.64-5.13-4.13-9.89-.6-5.85,3-8.73,5-14,3.89-10.76-2.63-22.42-5.77-28C181,16,170.77,10.32,165.52,7.5,152.7.65,140.94.25,133.36.08,122.83-.15,109.6-.44,96.26,7.5Z"/><rect class="cls-2" x="119.34" y="109.74" width="23.09" height="42.05" rx="9.39"/><path class="cls-2" d="M84.56,54.41C89.37,30.14,104.87,5.85,129.9,5.86s39.27,24.28,45.3,48.58c6.48,26.07-19,70.15-44,70.14S79.34,80.74,84.56,54.41Z"/><path class="cls-1" d="M157.14,10.25c-7.75-5.83-18.8-7.08-26.91-5.3-12.06-3.13-29.33,3.93-38,14.59C77.26,37.77,77,64.1,82.24,66c4.5,1.69,8.55-12.12,26.39-20.61,14.05-6.68,23.82-3.86,29.93-7.74a46.49,46.49,0,0,1,8.82,4.44c11.77,7.61,13.67,14.82,16.49,14C169.39,54.58,174.43,23.25,157.14,10.25Z"/><path class="cls-3" d="M134.19,249.91H95.43q-3.3-16.9-6.59-33.81c-3.94-4.35-15.28-18-15.67-37.92a54.94,54.94,0,0,1,3.3-19.74,21,21,0,0,1,3-10.64,19.85,19.85,0,0,1,8.18-7.42,97,97,0,0,1,44-10c11.64.14,26.59.65,41.62,10a63.11,63.11,0,0,1,9.5,7.27,55.35,55.35,0,0,1,5.77,11.54,62.53,62.53,0,0,1,3.3,19c-.09,14.16-7.72,22-14,36.28a115.11,115.11,0,0,0-9.07,35.45Z"/><path class="cls-3" d="M177.53,249.89,172,164.61c-.54-8.36-5.24-22.79,1.92-23.25l13.4,7c7.15-.46,13.45,6,14,14.36l6,87.7"/><rect class="cls-3" x="33.65" y="121.68" width="30.9" height="99.22" rx="14.43" transform="translate(197.41 72.51) rotate(72.33)"/><line class="cls-4" x1="132.54" y1="164.99" x2="132.35" y2="249.89"/><ellipse class="cls-5" cx="144.83" cy="202.48" rx="4.6" ry="4.55"/><ellipse class="cls-5" cx="144.81" cy="232.4" rx="4.6" ry="4.55"/><path d="M149.51,133.94a34.46,34.46,0,0,0-33.95,0l17,27Z"/><polygon class="cls-6" points="102.44 143.99 114.9 131.78 129.08 155.45 102.44 143.99"/><polygon class="cls-6" points="107.64 155.23 120.1 143.03 134.28 166.69 107.64 155.23"/><polygon class="cls-6" points="157.26 143.36 148.84 132.38 135.93 157.08 157.26 143.36"/><polygon class="cls-6" points="152.83 152.31 144.41 141.32 131.5 166.03 152.83 152.31"/><ellipse class="cls-7" cx="115.39" cy="71.69" rx="11.5" ry="11.69"/><ellipse cx="115.3" cy="72.32" rx="5.12" ry="5.59"/><ellipse class="cls-7" cx="149.31" cy="71.79" rx="11.5" ry="11.69"/><ellipse cx="149.85" cy="72.64" rx="5.12" ry="5.59"/><path class="cls-8" d="M135,90h-7.7c-1.43,0-2.41-1.12-1.89-2.16l5-10a2.12,2.12,0,0,1,2.08-1h0a1.94,1.94,0,0,1,1.81,1.25L137,88C137.27,89,136.3,90,135,90Z"/><rect class="cls-9" x="95.43" y="161.86" width="65.96" height="86.57"/><rect class="cls-3" x="25.71" y="153.29" width="30.9" height="92.66" rx="14.43" transform="translate(228.39 280.16) rotate(124.92)"/><rect class="cls-10" x="99.27" y="154.23" width="56.07" height="8.81" rx="4.41" transform="translate(254.6 317.27) rotate(180)"/><ellipse class="cls-10" cx="128.02" cy="153.03" rx="14.43" ry="8.66"/><ellipse class="cls-2" cx="85.16" cy="234.82" rx="11.35" ry="24.43" transform="translate(-164.55 241.24) rotate(-71.54)"/><ellipse class="cls-2" cx="78.55" cy="222.71" rx="16.6" ry="8.9" transform="translate(-68.17 37.66) rotate(-18.98)"/><path class="cls-11" d="M115.13,102.87c.74-4,29-4.21,30.25.93.6,2.39-4.73,5.38-5.12,5.59C129.83,115.13,114.56,106,115.13,102.87Z"/><path class="cls-1" d="M163.8,60.21c1.13-1.52-10.23-14.09-17.42-11.6-1.38.48-3,1.65-3,2.83,0,1.55,2.78,2.46,9.18,4.8C162.9,60,163.54,60.55,163.8,60.21Z"/><path class="cls-1" d="M99.22,58.81c-1.14-1.52,10.23-14.09,17.42-11.6,1.37.48,3,1.65,3,2.84,0,1.54-2.77,2.45-9.18,4.8C100.11,58.64,99.47,59.15,99.22,58.81Z"/></g></g></svg>