<svg xmlns="http://www.w3.org/2000/svg" xmlns:xlink="http://www.w3.org/1999/xlink" viewBox="0 0 1089.22 834.69"><defs><style>.cls-1{fill:none;}.cls-2{isolation:isolate;}.cls-3{clip-path:url(#clip-path);}.cls-4{fill:#b3b3b3;}.cls-5{clip-path:url(#clip-path-2);}.cls-6{fill:#283ca0;stroke:#000;stroke-miterlimit:10;stroke-width:1.32px;}.cls-7{fill:#2884f9;}.cls-8{mix-blend-mode:multiply;}.cls-8,.cls-9{opacity:0.6;}.cls-10{fill:gray;}.cls-11{fill:#666;}.cls-12{fill:#4d4d4d;}</style><clipPath id="clip-path" transform="translate(321.08 4.8)"><rect class="cls-1" width="464.24" height="822.55"/></clipPath><clipPath id="clip-path-2" transform="translate(321.08 4.8)"><rect class="cls-1" x="-279.66" y="-4.14" width="1024" height="833.95"/></clipPath></defs><g class="cls-2"><g id="Capa_2" data-name="Capa 2"><g id="Capa_2-2" data-name="Capa 2"><g class="cls-3"><rect class="cls-4" x="42" y="513.72" width="1022.69" height="320.97"/><g class="cls-5"><path class="cls-6" d="M-36.73,140.29A792.53,792.53,0,0,1-178.47,113.4C-242.62,94.85-289.1,71.75-319.12,54.26q10.94-29.2,21.86-58.4H-36.73Z" transform="translate(321.08 4.8)"/><path class="cls-6" d="M484,140.29A792.53,792.53,0,0,0,625.73,113.4c64.15-18.55,110.63-41.65,140.64-59.14q-10.92-29.2-21.85-58.4H484Z" transform="translate(321.08 4.8)"/><path class="cls-6" d="M223.46,161c-38.62,0-82.22-1.39-129.7-5.12C45.13,152,1.4,146.43-36.73,140.29V-4.14H223.8Q223.64,78.42,223.46,161Z" transform="translate(321.08 4.8)"/><path class="cls-6" d="M484.33,140.29c-36.82,6.12-79.22,11.74-126.51,15.58-49.58,4-94.81,5.3-134.36,5.12q.16-82.56.34-165.13H484.33Z" transform="translate(321.08 4.8)"/><path class="cls-6" d="M-35.77,302a791.42,791.42,0,0,1-141.75-26.88c-64.14-18.56-110.63-41.66-140.64-59.15,7.28-19.47-7.46-145.67-.18-165.13a654.27,654.27,0,0,0,147.66,62.8c55.6,13.23,97,20.86,134.73,23.23Z" transform="translate(321.08 4.8)"/><path class="cls-6" d="M484.94,302a791.58,791.58,0,0,0,141.75-26.88c64.14-18.56,110.63-41.66,140.64-59.15C760,196.47,752.4,84.09,745.12,64.62a751.52,751.52,0,0,1-135.73,50.46,735.36,735.36,0,0,1-124.62,21.76Q484.86,219.4,484.94,302Z" transform="translate(321.08 4.8)"/><path class="cls-6" d="M224.41,322.68c-38.62,0-82.21-1.39-129.69-5.13C46.08,313.72,2.36,308.11-35.77,302c0-48.14-.18-117-.18-165.13,37.87,6.83,79.15,12.57,123.49,16.31a1317.28,1317.28,0,0,0,137.22,4.39Q224.58,240.12,224.41,322.68Z" transform="translate(321.08 4.8)"/><path class="cls-6" d="M485.29,302c-36.83,6.12-79.23,11.74-126.51,15.58-49.58,4-94.82,5.3-134.37,5.13q.18-82.58.35-165.14c41.56.22,86.32-1.23,133.84-5.12,44.91-3.68,87.06-9.11,126.17-15.58Z" transform="translate(321.08 4.8)"/><path class="cls-6" d="M-35.77,465A792.46,792.46,0,0,1-177.52,438.1c-64.14-18.56-110.63-41.66-140.64-59.15,7.28-19.46-7.46-145.67-.18-165.13a654.71,654.71,0,0,0,147.66,62.81c55.6,13.22,97,20.85,134.73,23.22Z" transform="translate(321.08 4.8)"/><path class="cls-6" d="M484.94,465A792.62,792.62,0,0,0,626.69,438.1c64.14-18.56,110.63-41.66,140.64-59.15C760,359.49,752.4,247.1,745.12,227.64a751.55,751.55,0,0,1-135.73,50.45,734.37,734.37,0,0,1-124.62,21.76Q484.86,382.42,484.94,465Z" transform="translate(321.08 4.8)"/><path class="cls-6" d="M224.41,485.69c-38.62,0-82.21-1.39-129.69-5.13C46.08,476.74,2.36,471.13-35.77,465c0-48.15-.18-117-.18-165.14,37.87,6.83,79.15,12.57,123.49,16.31a1314.52,1314.52,0,0,0,137.22,4.39Q224.58,403.13,224.41,485.69Z" transform="translate(321.08 4.8)"/><path class="cls-6" d="M485.29,465c-36.83,6.11-79.23,11.73-126.51,15.57-49.58,4-94.82,5.31-134.37,5.13q.18-82.57.35-165.14c41.56.22,86.32-1.23,133.84-5.12,44.91-3.68,87.06-9.11,126.17-15.58Z" transform="translate(321.08 4.8)"/></g><polygon class="cls-7" points="291.97 304.74 285.6 303.54 285.6 141.56 291.54 143.09 291.97 304.74"/><polygon class="cls-8" points="47.18 241.44 41.48 238.98 41.48 76.99 47.49 80.1 47.18 241.44"/><polygon class="cls-8" points="1060.54 234.57 1066.23 232.1 1066.23 70.12 1060.22 73.23 1060.54 234.57"/><polygon class="cls-9" points="47.49 406.26 41.8 403.79 41.47 240.09 46.83 242.64 47.49 406.26"/><polygon class="cls-9" points="1059.3 399.39 1065 396.92 1065.33 233.22 1059.97 235.77 1059.3 399.39"/><polygon class="cls-9" points="47.49 79.01 41.29 75.69 41.29 0.61 46.49 1.2 47.49 79.01"/><polygon class="cls-9" points="1059.13 73.12 1065.33 70.06 1065.33 0.99 1060.13 1.52 1059.13 73.12"/><polygon class="cls-7" points="292.74 469.56 286.37 468.37 286.37 306.38 292.3 307.92 292.74 469.56"/><polygon class="cls-7" points="291.54 141.21 285.48 140.27 285.26 0.95 291.1 0.95 291.54 141.21"/><polygon class="cls-7" points="799.17 141.21 805.23 140.27 805.44 0.95 799.6 0.95 799.17 141.21"/><path class="cls-10" d="M745.44,562.23C622.59,600.86,450.62,640.7,244.52,643a1729.22,1729.22,0,0,1-524.73-75.75q.12-30.57.06-61.53c-.05-30.77-.23-42.53-.06-105.79,234.43,74.62,419.73,86.32,530.91,85.74,114.59-.6,201.84-14.51,224.67-18.31C585.82,449,677.36,418,745.44,391.58,746.21,486.2,744.67,467.61,745.44,562.23Z" transform="translate(321.08 4.8)"/><path class="cls-11" d="M745.2,577A2212.39,2212.39,0,0,1,244.13,639.1a2213.55,2213.55,0,0,1-524.89-58.28q.12-23.52.07-47.34c-.06-23.67.23-54.42.41-103.09C-45.79,487.8,139.1,518.5,250.31,518.06c114.63-.46,201.91-11.17,224.74-14.09,110.49-14.14,200.68-56,268.77-76.27C744.59,500.5,744.43,504.18,745.2,577Z" transform="translate(321.08 4.8)"/><polygon class="cls-12" points="64.03 585.02 45.95 582.07 47.76 474.1 65.84 482.94 64.03 585.02"/><polygon class="cls-12" points="1042.09 582.07 1060.17 579.13 1058.37 471.16 1040.29 479.99 1042.09 582.07"/><polygon class="cls-12" points="293.63 618.39 275.56 615.45 277.36 507.47 295.44 516.31 293.63 618.39"/><polygon class="cls-12" points="798.03 627.23 816.11 624.28 814.3 516.31 796.22 525.14 798.03 627.23"/><polygon class="cls-12" points="554.42 641.46 535.44 640.48 537.25 532.5 554.42 532.5 554.42 641.46"/></g></g></g></g></svg>