<svg xmlns="http://www.w3.org/2000/svg" xmlns:xlink="http://www.w3.org/1999/xlink" viewBox="0 0 328.13 446.36"><defs><style>.cls-1{fill:#1f1f1f;}.cls-2{fill:#a6a6a6;}.cls-3{fill:#878787;}.cls-4{fill:#ededed;}.cls-5{fill:#333;}.cls-6{fill:#696969;}.cls-7{fill:#00081d;}.cls-20,.cls-8{fill:#fff;}.cls-9{fill:#e0e0e0;}.cls-10{fill:#000256;}.cls-11{fill:#000836;}.cls-12{fill:url(#Degradado_sin_nombre_20);}.cls-13{fill:#999;}.cls-14{fill:#c4c4c4;}.cls-15{fill:#363636;}.cls-16{fill:url(#Degradado_sin_nombre_20-2);}.cls-17{fill:url(#Degradado_sin_nombre_20-3);}.cls-18{fill:#00328a;}.cls-19{fill:#bd0004;}.cls-20{font-size:14.4px;font-family:DESIGNERRegular, DESIGNER;letter-spacing:0.06em;}.cls-21{fill:#e1e1e1;}.cls-22{opacity:0.69;fill:url(#Degradado_sin_nombre_20-4);}</style><linearGradient id="Degradado_sin_nombre_20" x1="-14.74" y1="-186.71" x2="34.99" y2="-117.55" gradientTransform="matrix(1.38, -0.07, 1.24, 1.18, 355.6, 383.79)" gradientUnits="userSpaceOnUse"><stop offset="0.43" stop-color="#999" stop-opacity="0"/><stop offset="0.47" stop-color="#9a9a9a" stop-opacity="0.01"/><stop offset="0.48" stop-color="#9d9d9d" stop-opacity="0.04"/><stop offset="0.49" stop-color="#a2a2a2" stop-opacity="0.09"/><stop offset="0.5" stop-color="#a9a9a9" stop-opacity="0.16"/><stop offset="0.51" stop-color="#b3b3b3" stop-opacity="0.25"/><stop offset="0.52" stop-color="#bfbfbf" stop-opacity="0.37"/><stop offset="0.53" stop-color="#cdcdcd" stop-opacity="0.51"/><stop offset="0.53" stop-color="#ddd" stop-opacity="0.67"/><stop offset="0.54" stop-color="#efefef" stop-opacity="0.84"/><stop offset="0.54" stop-color="#fff"/><stop offset="0.56" stop-color="#e9e9e9" stop-opacity="0.78"/><stop offset="0.58" stop-color="#d1d1d1" stop-opacity="0.55"/><stop offset="0.6" stop-color="#bdbdbd" stop-opacity="0.35"/><stop offset="0.61" stop-color="#adadad" stop-opacity="0.2"/><stop offset="0.63" stop-color="#a2a2a2" stop-opacity="0.09"/><stop offset="0.64" stop-color="#9b9b9b" stop-opacity="0.02"/><stop offset="0.65" stop-color="#999" stop-opacity="0"/></linearGradient><linearGradient id="Degradado_sin_nombre_20-2" x1="-113.39" y1="-108.7" x2="-63.66" y2="-39.54" gradientTransform="matrix(1.38, -0.08, 1.25, 1.17, 351.91, 367.95)" xlink:href="#Degradado_sin_nombre_20"/><linearGradient id="Degradado_sin_nombre_20-3" x1="223.35" y1="130.82" x2="283.32" y2="214.22" gradientTransform="matrix(1, 0, 0, 1, 0, 0)" xlink:href="#Degradado_sin_nombre_20"/><linearGradient id="Degradado_sin_nombre_20-4" x1="-431.4" y1="90.11" x2="-376.19" y2="166.88" gradientTransform="matrix(1.73, -0.68, 1.1, 1.65, 798.5, -407.8)" xlink:href="#Degradado_sin_nombre_20"/></defs><g id="Capa_2" data-name="Capa 2"><g id="Capa_1-2" data-name="Capa 1"><path class="cls-1" d="M184.05,271.57l10.12.05c8.57.05,15.82-4.48,16.91-10.54L221,205.3c1.6-9-10.65-16-22.6-13h0c-5.31,1.34-9.33,4.48-10.73,8.37l-20.07,55.73C164.87,264,173,271.52,184.05,271.57Z"/><polygon class="cls-2" points="140.77 440.82 214.15 439.99 216.38 230.22 167.98 254.48 140.77 440.82"/><polygon class="cls-2" points="328.13 440.51 269.18 440.35 250.61 224.25 293.93 246.72 328.13 440.51"/><polygon class="cls-3" points="213.14 440.37 266.92 440.82 249.04 251.88 214.77 253.51 213.14 440.37"/><path class="cls-4" d="M173.69,361.11,257,355l5.48,85.18h6.41L250.61,224.25l-80.45,4.88L141.51,440.34h9.6L161,358.21l75.69,82,17.86,0Zm76.17-110,5.71,87.31-83.52-81.7ZM159,349.65l11.69-85.53,75.83,81Z"/><ellipse class="cls-5" cx="207.64" cy="183.25" rx="17.29" ry="16.96"/><path class="cls-1" d="M279.82,259.29H270c-8.31,0-15.3-4.35-16.31-10.12l-9.3-53c-1.49-8.54,10.42-15.18,22-12.24h0c5.14,1.31,9,4.31,10.34,8L295.82,245C298.44,252.24,290.56,259.31,279.82,259.29Z"/><ellipse class="cls-6" cx="92.03" cy="232.67" rx="5.04" ry="4.65"/><ellipse class="cls-7" cx="162.24" cy="187.58" rx="5.04" ry="4.65"/><path class="cls-8" d="M7.51,401a23.54,23.54,0,0,1,26.81-13.34L50.7,420.61a29.61,29.61,0,0,1-26.81,13.33Z"/><path class="cls-9" d="M0,399.77a211.93,211.93,0,0,1,18.83-10.39c10.67-5.29,17.68-7.94,19-8.45l2.77,5.58c-2.25,1.33-8.82,5.15-18.53,10s-16.9,7.86-19.32,8.85C1.85,403.48.92,401.62,0,399.77Z"/><path class="cls-10" d="M307.79,23.4a35.29,35.29,0,0,1,3.59,32.85L252.59,170.41c-6.47,12.57-36.42,39.24-45.45,34.6l-31.07-17c-9-4.63-4.89-43.55,1.56-56.08L237.69,15.27A35.86,35.86,0,0,1,263.07.06,50.09,50.09,0,0,1,286.2,4.48,50.63,50.63,0,0,1,307.79,23.4Z"/><path class="cls-11" d="M187,266.56c-2.59,1-17.56,6.68-32.82-1.22-14.71-7.61-19-22.26-19.76-25.12L176.19,157a47.17,47.17,0,0,1,52.57,26.35Z"/><path class="cls-12" d="M190.63,166.58,154.8,238a26.53,26.53,0,0,1,26.78,13.44L217.42,180a23,23,0,0,0-26.79-13.43Z"/><path class="cls-13" d="M138.19,355.67c-2.28,1.37-15.39,9-27,2.91C99.94,352.7,98.26,338.33,98,335.52l45.11-90c3.85-1.48,14.66-5,25,.09s14.11,16.1,15.22,20.06Z"/><path class="cls-9" d="M86.19,441.18c-1.81,1.6-7.61.16-15-3.81-7.12-3.83-10.87-6.48-10.66-9.05q22.56-45,45.11-90c2.95-1.94,12.34-4.58,18.94-1.33s6.5,10.67,6.71,14.19Z"/><path class="cls-14" d="M85.12,444.51a3.36,3.36,0,0,1-5,1.21c-1.76-1.14-2.49-2.28-1.65-4.53,15-30,31.7-73.07,46.74-103.08,1.77-2.53,4.76,5.49,6.47,6.3s-.52,7.15-1.48,10.07Z"/><path class="cls-15" d="M20.49,434.07l58.9,10.79a7.78,7.78,0,0,0,8.15-11.54l-17-29.42a1.45,1.45,0,0,0-2-.54L20,431.35A1.47,1.47,0,0,0,20.49,434.07Z"/><path class="cls-16" d="M146,251.73,111,323.57a26.54,26.54,0,0,1,26.93,13.14L173,264.87A23,23,0,0,0,146,251.73Z"/><path class="cls-1" d="M259.71,121l-47.9,95.15,31.43-10.38,24.22-48.12a12.48,12.48,0,0,0,.77-9.31Z"/><ellipse class="cls-5" cx="255.27" cy="177.51" rx="17.29" ry="16.96"/><ellipse class="cls-17" cx="255.89" cy="176.08" rx="9.69" ry="9.42"/><ellipse class="cls-18" cx="249.03" cy="94.31" rx="20.26" ry="20.24" transform="translate(51.78 273.2) rotate(-62.95)"/><path class="cls-19" d="M245.42,124.84a109.27,109.27,0,0,1,.29-14c.29-3.38.51-4.15.91-8.31,1-9.94.49-14.69,1.1-14.74.84-.08,2,8.73,5.86,23.72,1.5,5.78,2.72,9.77,2.86,9.73s-1.22-5.2-2.39-12.9c-.6-4-.67-5.54-1-8.34a100.82,100.82,0,0,0-4-17.9l-7.55-18A65.12,65.12,0,0,1,243.35,75c.15,1.76.2,3.09.22,3.88.28,9.34-.15,20.8,0,28A117.45,117.45,0,0,0,245.42,124.84Z"/><text class="cls-20" transform="matrix(0.45, -0.89, 0.89, 0.45, 244.53, 111.67)">NESA</text><ellipse class="cls-8" cx="241.03" cy="92.39" rx="0.44" ry="0.58" transform="translate(-6.89 20.49) rotate(-4.8)"/><ellipse class="cls-8" cx="238.51" cy="92.05" rx="0.77" ry="0.91" transform="translate(-6.87 20.28) rotate(-4.8)"/><ellipse class="cls-8" cx="240" cy="90.28" rx="0.33" ry="0.46" transform="translate(-6.71 20.4) rotate(-4.8)"/><ellipse class="cls-8" cx="237.24" cy="93.66" rx="0.2" ry="0.25" transform="translate(-7.01 20.18) rotate(-4.8)"/><ellipse class="cls-8" cx="234.65" cy="94.79" rx="0.2" ry="0.25" transform="translate(-7.11 19.97) rotate(-4.8)"/><ellipse class="cls-8" cx="233.86" cy="90.77" rx="0.2" ry="0.25" transform="translate(-6.78 19.89) rotate(-4.8)"/><ellipse class="cls-8" cx="238.29" cy="89.39" rx="0.11" ry="0.14" transform="translate(-6.64 20.25) rotate(-4.8)"/><ellipse class="cls-8" cx="237.76" cy="89.28" rx="0.11" ry="0.14" transform="translate(-6.64 20.21) rotate(-4.8)"/><ellipse class="cls-8" cx="237.28" cy="90.97" rx="0.11" ry="0.14" transform="translate(-6.78 20.17) rotate(-4.8)"/><ellipse class="cls-8" cx="238.17" cy="90.31" rx="0.11" ry="0.14" transform="translate(-6.72 20.25) rotate(-4.8)"/><ellipse class="cls-8" cx="234.34" cy="89.91" rx="0.11" ry="0.14" transform="translate(-6.7 19.92) rotate(-4.8)"/><ellipse class="cls-8" cx="235.67" cy="91.09" rx="0.11" ry="0.14" transform="translate(-6.8 20.04) rotate(-4.8)"/><ellipse class="cls-8" cx="236.53" cy="91.32" rx="0.11" ry="0.14" transform="translate(-6.81 20.11) rotate(-4.8)"/><ellipse class="cls-8" cx="234.95" cy="89.99" rx="0.11" ry="0.14" transform="translate(-6.71 19.97) rotate(-4.8)"/><ellipse class="cls-8" cx="236.54" cy="92.67" rx="0.11" ry="0.14" transform="translate(-6.92 20.12) rotate(-4.8)"/><ellipse class="cls-8" cx="237.2" cy="90.31" rx="0.11" ry="0.14" transform="translate(-6.72 20.16) rotate(-4.8)"/><ellipse class="cls-8" cx="240.27" cy="88.7" rx="0.11" ry="0.14" transform="translate(-6.58 20.42) rotate(-4.8)"/><ellipse class="cls-8" cx="236.63" cy="87" rx="0.11" ry="0.14" transform="translate(-6.45 20.11) rotate(-4.8)"/><ellipse class="cls-8" cx="230.81" cy="91.73" rx="0.2" ry="0.25" transform="translate(-6.87 19.63) rotate(-4.8)"/><ellipse class="cls-8" cx="231.48" cy="93.33" rx="0.2" ry="0.25" transform="translate(-7 19.7) rotate(-4.8)"/><ellipse class="cls-8" cx="238.4" cy="87.24" rx="0.2" ry="0.25" transform="translate(-6.46 20.25) rotate(-4.8)"/><ellipse class="cls-8" cx="238.97" cy="94.16" rx="0.6" ry="0.61" transform="translate(-7.04 20.33) rotate(-4.8)"/><ellipse class="cls-8" cx="235.14" cy="92.95" rx="0.85" ry="1" transform="translate(-6.95 20) rotate(-4.8)"/><ellipse class="cls-8" cx="236.94" cy="96.84" rx="0.6" ry="0.61" transform="translate(-7.27 20.17) rotate(-4.8)"/><ellipse class="cls-8" cx="236.35" cy="89.54" rx="0.75" ry="0.85" transform="translate(-6.66 20.09) rotate(-4.8)"/><ellipse class="cls-8" cx="261.34" cy="99.27" rx="0.28" ry="0.32" transform="translate(54.07 286.87) rotate(-62.95)"/><ellipse class="cls-8" cx="262.32" cy="98.01" rx="0.49" ry="0.5" transform="translate(55.73 287.06) rotate(-62.95)"/><ellipse class="cls-8" cx="262.65" cy="99.34" rx="0.21" ry="0.25" transform="translate(54.72 288.07) rotate(-62.95)"/><ellipse class="cls-8" cx="261.99" cy="96.85" rx="0.13" ry="0.14" transform="translate(56.59 286.13) rotate(-62.95)"/><ellipse class="cls-8" cx="262.32" cy="95.11" rx="0.13" ry="0.14" transform="translate(58.31 285.48) rotate(-62.95)"/><ellipse class="cls-8" cx="264.44" cy="95.87" rx="0.13" ry="0.14" transform="translate(58.79 287.77) rotate(-62.95)"/><ellipse class="cls-8" cx="263.62" cy="98.68" rx="0.07" ry="0.07" transform="translate(55.84 288.58) rotate(-62.95)"/><ellipse class="cls-8" cx="263.85" cy="98.42" rx="0.07" ry="0.07" transform="translate(56.2 288.64) rotate(-62.95)"/><ellipse class="cls-8" cx="263.22" cy="97.66" rx="0.07" ry="0.07" transform="translate(56.53 287.67) rotate(-62.95)"/><ellipse class="cls-8" cx="263.24" cy="98.34" rx="0.07" ry="0.07" transform="translate(55.94 288.05) rotate(-62.95)"/><ellipse class="cls-8" cx="264.68" cy="96.38" rx="0.07" ry="0.07" transform="translate(58.47 288.27) rotate(-62.95)"/><ellipse class="cls-8" cx="263.7" cy="96.76" rx="0.07" ry="0.07" transform="translate(57.59 287.6) rotate(-62.95)"/><ellipse class="cls-8" cx="263.31" cy="97.15" rx="0.07" ry="0.07" transform="translate(57.03 287.47) rotate(-62.95)"/><ellipse class="cls-8" cx="264.44" cy="96.69" rx="0.07" ry="0.07" transform="translate(58.06 288.23) rotate(-62.95)"/><ellipse class="cls-8" cx="262.68" cy="96.76" rx="0.07" ry="0.07" transform="translate(57.04 286.69) rotate(-62.95)"/><ellipse class="cls-8" cx="263.56" cy="97.81" rx="0.07" ry="0.07" transform="translate(56.58 288.05) rotate(-62.95)"/><ellipse class="cls-8" cx="263.29" cy="99.95" rx="0.07" ry="0.07" transform="translate(54.53 288.98) rotate(-62.95)"/><ellipse class="cls-8" cx="265.27" cy="98.49" rx="0.07" ry="0.07" transform="translate(56.91 289.94) rotate(-62.95)"/><ellipse class="cls-8" cx="265" cy="93.93" rx="0.13" ry="0.14" transform="translate(60.82 287.21) rotate(-62.95)"/><ellipse class="cls-8" cx="264.03" cy="93.83" rx="0.13" ry="0.14" transform="translate(60.39 286.3) rotate(-62.95)"/><ellipse class="cls-8" cx="264.58" cy="99.37" rx="0.13" ry="0.14" transform="translate(55.75 289.81) rotate(-62.95)"/><ellipse class="cls-8" cx="261.2" cy="97.64" rx="0.38" ry="0.34" transform="translate(55.45 285.85) rotate(-62.95)"/><ellipse class="cls-8" cx="263.01" cy="95.92" rx="0.54" ry="0.55" transform="translate(57.97 286.53) rotate(-62.95)"/><ellipse class="cls-8" cx="260.63" cy="95.74" rx="0.38" ry="0.34" transform="translate(56.82 284.31) rotate(-62.95)"/><ellipse class="cls-8" cx="264.19" cy="97.58" rx="0.48" ry="0.46" transform="translate(57.13 288.49) rotate(-62.95)"/><path class="cls-21" d="M241.22,95.82a3.75,3.75,0,0,1,.17.74c-.83-.22-3.06-1-3.87-1.26a1.21,1.21,0,0,1-.39-.24c-.32-.25-.3-.51.1-.69a7.17,7.17,0,0,1,1.34-.49,30.06,30.06,0,0,1,6.18-.62c1.89,0,3.78,0,5.66.06,1,0,1.9.1,2.84.2a23.75,23.75,0,0,1,4.05.65,13.3,13.3,0,0,1,1.37.52c.19.08.38.21.36.46s-.24.35-.44.44a10.78,10.78,0,0,1-2.89.69l-.42.06c0-.12-.07-.45.05-.34.7-.15.87-.22,1.57-.41.24-.06.53-.16.54-.49s-.23-.42-.45-.5a11.61,11.61,0,0,0-1.52-.47c-.95-.18-1.92-.31-2.88-.43a49.42,49.42,0,0,0-6-.29,36.5,36.5,0,0,0-6.07.46,9.49,9.49,0,0,0-1.63.48.7.7,0,0,0-.39.42c0,.15.17.35.33.43a7,7,0,0,0,.94.35"/><path class="cls-22" d="M269.61,2.38,193.39,150.53A42.26,42.26,0,0,1,227,166.45L301.54,18.31A36.26,36.26,0,0,0,269.61,2.38Z"/></g></g></svg>