<svg id="Capa_1" data-name="Capa 1" xmlns="http://www.w3.org/2000/svg" viewBox="0 0 500 500"><defs><style>.cls-1{fill:#e1e1e1;}.cls-2{fill:#636363;}</style></defs><path class="cls-1" d="M366.53,371.08c2.58-3.05,13.14-13.31,13.55-12.32,7.45,18.16,23.13,70.24,30.07,88.52,1.2,3.16.73,6.76.52,10.13-.57,9.1-6.68,12-16.35,6.81-10.75-5.76-21.49-12-30.45-19.35-40.28-33.09-74.17-70.14-105.22-108.69-28.51-35.38-55.83-71.36-82.83-107.46-13.62-18.21-26-37-37.85-56-17.19-27.49-34.37-55.06-45.82-84.36C88.05,77.89,85.65,67,83,56.19c-1.14-4.61-1-9.76,4.57-12.56,5.83-3,11.19.32,16,2.94,22.9,12.46,40.32,29.3,58,45.88,7.23,6.79.36.15,7.44,7.22-1.93,2.21-8.62,6.8-8,3.35-13.72-11.35-17.81-13.74-32.16-24.59-5-3.75-11.49-8-18.79-4.23-6.49,3.37-5.59,9.48-4,14.62,3.57,11.64,6.79,23.51,12.43,34.62C128.63,143.56,140,163.38,151.79,183c24.07,40.1,52.54,78.39,82.43,116,30.19,38,62.39,75,100,108.83,10.19,9.18,22.49,17,34.66,24.67,3.7,2.33,11.66,3.74,15,2.15s4.8-7.54,4.26-11.4c-1.05-7.46-4.13-14.79-6.3-22.19"/><path class="cls-2" d="M362.53,375.32c6.17,14.69,9.37,16,15.12,30.75,1,2.56.61,5.47.44,8.2-.47,7.35-5.5,9.69-13.49,5.48-8.87-4.67-17.74-9.71-25.15-15.67-33.27-26.8-61.28-56.79-86.94-88-23.56-28.64-46.15-57.76-68.47-87-11.26-14.73-21.49-30-31.29-45.29-14.22-22.24-28.42-44.55-37.9-68.25-3.4-8.49-5.39-17.31-7.59-26-.94-3.73-.82-7.9,3.76-10.16,4.81-2.37,9.23.28,13.21,2.4,18.9,10.1,18.69,10.3,33.3,23.73,1.55,1.88.1,1.29-3.12,3.7-.45.64-1.83,1.29-3.71,2.57-11.33-9.19,6.23,4.57-5.62-4.21-4.09-3-9.49-6.51-15.51-3.44-5.35,2.71-4.61,7.66-3.3,11.81,3,9.42,5.63,19,10.29,28,8.45,16.29,17.86,32.32,27.6,48.2,19.91,32.45,43.45,63.43,68.15,93.89,25,30.76,51.57,60.69,82.59,88.09,8.42,7.44,18.58,13.8,28.63,20,3.06,1.88,9.63,3,12.35,1.75s-1.67-11.69-4.45-12.2"/></svg>