<svg id="Capa_1" data-name="Capa 1" xmlns="http://www.w3.org/2000/svg" viewBox="0 0 500 500"><defs><style>.cls-1{fill:#ddd;}.cls-2{fill:#f4f4f4;}.cls-3{fill:#c6c6c6;}</style></defs><path class="cls-1" d="M142.47,212.61c9.93.92,19.91,9.64,22.22,21.74,1.63,8.52-1.49,13.83,1.94,17.8,3.28,3.81,7.07,0,13.73,2.69,10.8,4.34,14.52,19.84,14.79,21.07,1.58,6.95-.09,9.11,2.18,12.72,3.62,5.78,9,2.11,16.76,6.24,12.83,6.86,16.06,26.64,16.2,27.54,1.2,7.93-.78,9.51,1.29,13.3,4.69,8.61,16.08,2.69,21.44,11.17,3,4.71,3,12.17.67,17.4-4.85,10.82-20.61,13.71-30.7,9.05s-13.79-16.25-15.42-21.27c-5.67-17.36,1.4-25.65-4.5-35.81-5.79-9.94-13.61-3.79-27.25-14.75-3.89-3.13-15.46-12.43-19.09-29.33-3.15-14.65,1.93-24.49-4.11-30.53-4.21-4.21-8-.75-14.88-5.63-6.14-4.36-11.68-13.22-9.36-18.47C130.46,212.82,138.38,212.23,142.47,212.61Z"/><path class="cls-2" d="M135.27,233.22c9.76,1.05,19.75,9.32,22.26,20.58,1.77,7.93-1.19,12.78,2.25,16.53,3.3,3.59,6.95.15,13.55,2.76,10.69,4.24,14.65,18.68,14.94,19.82,1.69,6.47.1,8.44,2.39,11.83,3.67,5.42,8.92,2.13,16.6,6.11,12.73,6.61,16.3,25,16.45,25.83,1.34,7.38-.57,8.8,1.53,12.35,4.79,8.07,15.85,2.82,21.28,10.78,3,4.43,3.22,11.33,1,16.14-4.55,9.92-20,12.28-30,7.77s-13.86-15.34-15.57-20c-5.91-16.2.88-23.74-5.13-33.27-5.88-9.32-13.44-3.79-27-14.21-3.89-3-15.44-11.82-19.34-27.55-3.38-13.63,1.41-22.65-4.64-28.37-4.23-4-7.88-.85-14.73-5.51-6.12-4.16-11.74-12.48-9.57-17.3C123.48,233.17,131.24,232.78,135.27,233.22Z"/><path class="cls-3" d="M355.12,303.25c-12.66-.22-26.35-9.88-30.75-24.33-3.1-10.17.2-16.88-4.61-21.39-4.62-4.31-8.95.63-17.7-2-14.18-4.29-20.77-22.73-21.27-24.18-2.84-8.29-1-11.05-4.3-15.22-5.27-6.67-11.68-1.74-22-6.05-17.05-7.15-23.55-30.82-23.83-31.89-2.48-9.5-.18-11.59-3.25-16-7-10-10.26-12.57-18.07-22.36-4.34-5.44-15.71-3.71-13.38-10.26,4.83-13.54,24.4-18.45,37.74-13.72,13.17,4.67,19.41,18.45,22.09,24.37,9.28,20.52,1.34,31.2,10,43,8.52,11.52,17.67,3.37,36.24,15.42,5.31,3.44,21.07,13.66,27.72,33.79,5.76,17.46.54,29.84,8.91,36.61,5.84,4.72,10.22.19,19.5,5.48,8.3,4.74,16.39,15,14.09,21.53C370.28,301.92,360.34,303.34,355.12,303.25Z"/><path class="cls-2" d="M189.5,114.49c15.74,2,32.19,14.67,36.78,31.32,3.23,11.73-1.28,18.72,4.44,24.39,5.48,5.44,11.17.56,21.9,4.73,17.38,6.75,24.45,28.14,25,29.83,3,9.59.57,12.4,4.42,17.49,6.16,8.15,14.43,3.57,27,9.8,20.78,10.33,27.43,37.52,27.71,38.74,2.51,10.89-.48,12.89,3.08,18.21,8.08,12.08,25.59,4.92,34.72,16.88,5.07,6.65,5.72,16.8,2.42,23.74-6.82,14.35-31.48,17.05-47.78,9.93-16.11-7-23-23.2-26-30.15-10.3-24.08.23-34.82-9.89-49.1-9.9-14-21.78-6.23-44.16-22.21-6.4-4.56-25.39-18.12-32.43-41.4-6.11-20.19,1.14-33.19-8.87-41.88-7-6.07-12.7-1.65-23.92-8.83-10-6.42-19.48-18.91-16.23-25.87C170.55,113.84,183,113.66,189.5,114.49Z"/></svg>