<svg xmlns="http://www.w3.org/2000/svg" xmlns:xlink="http://www.w3.org/1999/xlink" viewBox="0 0 1089.24 768.73"><defs><style>.cls-1{fill:none;}.cls-2{isolation:isolate;}.cls-3{fill:#b3b3b3;}.cls-4{clip-path:url(#clip-path);}.cls-5{fill:#283ca0;stroke:#000;stroke-miterlimit:10;stroke-width:1.32px;}.cls-6{fill:#2884f9;}.cls-7{mix-blend-mode:multiply;}.cls-7,.cls-8{opacity:0.6;}.cls-9{fill:gray;}.cls-10{fill:#666;}.cls-11{fill:#4d4d4d;}</style><clipPath id="clip-path" transform="translate(40.32 0.62)"><rect class="cls-1" x="1.09" y="0.04" width="1024" height="768"/></clipPath></defs><g class="cls-2"><g id="Capa_2" data-name="Capa 2"><g id="Capa_2-2" data-name="Capa 2"><rect class="cls-3" x="42" y="473.15" width="1022.69" height="295.59"/><g class="cls-4"><path class="cls-5" d="M244,133.05a853.53,853.53,0,0,1-141.75-24.76C38.14,91.2-8.35,69.93-38.36,53.82Q-27.44,26.93-16.51,0H244Z" transform="translate(40.32 0.62)"/><path class="cls-5" d="M764.74,133.05a853.53,853.53,0,0,0,141.75-24.76c64.14-17.09,110.63-38.36,140.64-54.47Q1036.21,26.93,1025.28,0H764.74Z" transform="translate(40.32 0.62)"/><path class="cls-5" d="M504.21,152.11c-38.62,0-82.21-1.27-129.69-4.72-48.64-3.52-92.36-8.69-130.49-14.34V0H504.56Q504.38,76.08,504.21,152.11Z" transform="translate(40.32 0.62)"/><path class="cls-5" d="M765.09,133.05c-36.83,5.63-79.23,10.81-126.51,14.34-49.58,3.71-94.82,4.89-134.37,4.72q.18-76,.35-152.07H765.09Z" transform="translate(40.32 0.62)"/><path class="cls-5" d="M245,282a853.44,853.44,0,0,1-141.74-24.76C39.09,240.1-7.39,218.82-37.41,202.72c7.29-17.93-7.45-134.15-.17-152.08a684.82,684.82,0,0,0,147.65,57.84c55.6,12.18,97,19.21,134.74,21.39Q244.9,205.91,245,282Z" transform="translate(40.32 0.62)"/><path class="cls-5" d="M765.7,282a853.44,853.44,0,0,0,141.74-24.76c64.15-17.09,110.63-38.37,140.65-54.47-7.29-17.93-14.93-121.43-22.22-139.35a792.47,792.47,0,0,1-135.73,46.46,792.11,792.11,0,0,1-124.62,20Z" transform="translate(40.32 0.62)"/><path class="cls-5" d="M505.17,301c-38.62,0-82.22-1.28-129.7-4.72C326.84,292.77,283.11,287.6,245,282c0-44.34-.17-107.74-.17-152.08,37.87,6.29,79.15,11.58,123.49,15,49.26,3.83,95.21,4.83,137.21,4.05Q505.35,225,505.17,301Z" transform="translate(40.32 0.62)"/><path class="cls-5" d="M766.05,282c-36.83,5.63-79.23,10.81-126.52,14.34C590,300,544.72,301.18,505.17,301q.16-76,.34-152.07c41.56.2,86.33-1.14,133.85-4.72,44.91-3.39,87.06-8.39,126.16-14.35Z" transform="translate(40.32 0.62)"/><path class="cls-5" d="M245,432.07a853.44,853.44,0,0,1-141.74-24.76C39.09,390.22-7.39,369-37.41,352.84c7.29-17.93-7.45-134.15-.17-152.08A684.82,684.82,0,0,0,110.07,258.6c55.6,12.18,97,19.21,134.74,21.39Q244.9,356,245,432.07Z" transform="translate(40.32 0.62)"/><path class="cls-5" d="M765.7,432.07a853.44,853.44,0,0,0,141.74-24.76c64.15-17.09,110.63-38.36,140.65-54.47-7.29-17.93-14.93-121.43-22.22-139.35A792.47,792.47,0,0,1,890.14,260a790.94,790.94,0,0,1-124.62,20Z" transform="translate(40.32 0.62)"/><path class="cls-5" d="M505.17,451.13c-38.62,0-82.22-1.28-129.7-4.72-48.63-3.52-92.36-8.69-130.49-14.34,0-44.34-.17-107.74-.17-152.08,37.87,6.29,79.15,11.58,123.49,15,49.26,3.83,95.21,4.83,137.21,4.05Q505.35,375.1,505.17,451.13Z" transform="translate(40.32 0.62)"/><path class="cls-5" d="M766.05,432.07c-36.83,5.63-79.23,10.81-126.52,14.34-49.58,3.71-94.81,4.89-134.36,4.72q.16-76,.34-152.07c41.56.2,86.33-1.14,133.85-4.72C684.27,291,726.42,286,765.52,280Z" transform="translate(40.32 0.62)"/></g><polygon class="cls-6" points="291.97 280.69 285.6 279.59 285.6 130.41 291.54 131.83 291.97 280.69"/><polygon class="cls-7" points="47.18 222.4 41.48 220.13 41.48 70.95 47.49 73.82 47.18 222.4"/><polygon class="cls-7" points="1060.54 216.07 1066.23 213.8 1066.23 64.62 1060.22 67.49 1060.54 216.07"/><polygon class="cls-8" points="47.49 374.19 41.8 371.91 41.47 221.16 46.83 223.5 47.49 374.19"/><polygon class="cls-8" points="1059.3 367.86 1065 365.58 1065.33 214.83 1059.97 217.17 1059.3 367.86"/><polygon class="cls-8" points="47.49 72.82 41.29 69.75 41.29 0.62 46.49 1.16 47.49 72.82"/><polygon class="cls-8" points="1059.13 67.39 1065.33 64.58 1065.33 0.96 1060.13 1.46 1059.13 67.39"/><polygon class="cls-6" points="292.74 432.48 286.37 431.38 286.37 282.2 292.3 283.62 292.74 432.48"/><polygon class="cls-6" points="291.54 130.1 285.48 129.23 285.26 0.92 291.1 0.92 291.54 130.1"/><polygon class="cls-6" points="799.17 130.1 805.23 129.23 805.44 0.92 799.6 0.92 799.17 130.1"/><path class="cls-9" d="M1026.19,521.62C903.35,557.2,731.38,593.88,525.28,596A1866.59,1866.59,0,0,1,.55,526.22q.12-28.16.06-56.66c0-28.35-.24-39.17-.06-97.43,234.42,68.72,419.72,79.5,530.9,79,114.6-.55,201.85-13.37,224.67-16.86,110.46-16.93,202-45.47,270.07-69.77C1027,451.6,1025.42,434.48,1026.19,521.62Z" transform="translate(40.32 0.62)"/><path class="cls-10" d="M1026,535.2a2391.58,2391.58,0,0,1-501.07,57.21A2394.53,2394.53,0,0,1,0,538.74q.12-21.66.06-43.59C0,473.34.3,445,.48,400.21,235,453.07,419.85,481.35,531.06,480.94c114.63-.42,201.91-10.28,224.74-13,110.49-13,200.68-51.54,268.78-70.24C1025.35,464.78,1025.19,468.16,1026,535.2Z" transform="translate(40.32 0.62)"/><polygon class="cls-11" points="64.03 538.8 45.95 536.09 47.76 436.66 65.84 444.79 64.03 538.8"/><polygon class="cls-11" points="1042.09 536.09 1060.17 533.38 1058.37 433.95 1040.29 442.08 1042.09 536.09"/><polygon class="cls-11" points="293.63 569.54 275.56 566.83 277.36 467.39 295.44 475.53 293.63 569.54"/><polygon class="cls-11" points="798.03 577.67 816.11 574.96 814.3 475.53 796.22 483.66 798.03 577.67"/><polygon class="cls-11" points="554.42 590.78 535.44 589.88 537.25 490.44 554.42 490.44 554.42 590.78"/></g></g></g></svg>