<svg xmlns="http://www.w3.org/2000/svg" xmlns:xlink="http://www.w3.org/1999/xlink" viewBox="0 0 450.91 390.36"><defs><style>.cls-1{fill:#1f1f1f;}.cls-2{fill:#333;}.cls-3,.cls-8{fill:#fff;}.cls-4{fill:#e0e0e0;}.cls-5{fill:#000256;}.cls-6{fill:#00328a;}.cls-7{fill:#bd0004;}.cls-8{font-size:14.4px;font-family:DESIGNERRegular, DESIGNER;letter-spacing:0.06em;}.cls-9{fill:#e1e1e1;}.cls-10{fill:#a6a6a6;}.cls-11{fill:#878787;}.cls-12{opacity:0.69;fill:url(#Degradado_sin_nombre_20);}.cls-13{fill:#696969;}.cls-14{fill:#00081d;}.cls-15{fill:#000141;}.cls-16{fill:#000836;}.cls-17{fill:url(#Degradado_sin_nombre_20-2);}.cls-18{fill:#999;}.cls-19{fill:#c4c4c4;}.cls-20{fill:#363636;}.cls-21{fill:url(#Degradado_sin_nombre_20-3);}.cls-22{fill:url(#Degradado_sin_nombre_20-4);}.cls-23{fill:#ededed;}</style><linearGradient id="Degradado_sin_nombre_20" x1="-313.5" y1="-70.12" x2="-258.3" y2="6.65" gradientTransform="matrix(1.85, 0.18, 0.22, 1.97, 896.74, 177.36)" gradientUnits="userSpaceOnUse"><stop offset="0.43" stop-color="#999" stop-opacity="0"/><stop offset="0.47" stop-color="#9a9a9a" stop-opacity="0.01"/><stop offset="0.48" stop-color="#9d9d9d" stop-opacity="0.04"/><stop offset="0.49" stop-color="#a2a2a2" stop-opacity="0.09"/><stop offset="0.5" stop-color="#a9a9a9" stop-opacity="0.16"/><stop offset="0.51" stop-color="#b3b3b3" stop-opacity="0.25"/><stop offset="0.52" stop-color="#bfbfbf" stop-opacity="0.37"/><stop offset="0.53" stop-color="#cdcdcd" stop-opacity="0.51"/><stop offset="0.53" stop-color="#ddd" stop-opacity="0.67"/><stop offset="0.54" stop-color="#efefef" stop-opacity="0.84"/><stop offset="0.54" stop-color="#fff"/><stop offset="0.56" stop-color="#e9e9e9" stop-opacity="0.78"/><stop offset="0.58" stop-color="#d1d1d1" stop-opacity="0.55"/><stop offset="0.6" stop-color="#bdbdbd" stop-opacity="0.35"/><stop offset="0.61" stop-color="#adadad" stop-opacity="0.2"/><stop offset="0.63" stop-color="#a2a2a2" stop-opacity="0.09"/><stop offset="0.64" stop-color="#9b9b9b" stop-opacity="0.02"/><stop offset="0.65" stop-color="#999" stop-opacity="0"/></linearGradient><linearGradient id="Degradado_sin_nombre_20-2" x1="107.99" y1="-352.11" x2="157.72" y2="-282.95" gradientTransform="matrix(1.26, 0.57, 0.57, 1.62, 262.68, 583.53)" xlink:href="#Degradado_sin_nombre_20"/><linearGradient id="Degradado_sin_nombre_20-3" x1="9.99" y1="-274.49" x2="59.72" y2="-205.33" gradientTransform="matrix(1.27, 0.56, 0.58, 1.61, 268.14, 568.67)" xlink:href="#Degradado_sin_nombre_20"/><linearGradient id="Degradado_sin_nombre_20-4" x1="346.13" y1="80.36" x2="406.1" y2="163.77" gradientTransform="matrix(1, 0, 0, 1, 0, 0)" xlink:href="#Degradado_sin_nombre_20"/></defs><g id="Capa_2" data-name="Capa 2"><g id="Capa_1-2" data-name="Capa 1"><path class="cls-1" d="M306.83,221.12l10.12,0c8.57.05,15.82-4.47,16.91-10.54l9.95-55.78c1.6-9-10.65-16-22.6-13h0c-5.31,1.34-9.33,4.48-10.73,8.37l-20.07,55.73C287.65,213.57,295.74,221.06,306.83,221.12Z"/><ellipse class="cls-2" cx="330.42" cy="132.79" rx="17.29" ry="16.96"/><path class="cls-3" d="M6.19,242.77a23.31,23.31,0,0,1,15.28-5.2,23.09,23.09,0,0,1,14.66,5.55l-.42,36.77a29.26,29.26,0,0,1-14.95,3.89,29.21,29.21,0,0,1-15-4.23Z"/><path class="cls-4" d="M.07,238.24a214.84,214.84,0,0,1,21.5-.67c11.9.15,19.35,1,20.77,1.15,0,2.07,0,4.15-.07,6.22-2.61.16-10.2.57-21,.45S2.6,244.68,0,244.46C0,242.39.05,240.31.07,238.24Z"/><path class="cls-5" d="M445.53,43.43A35.25,35.25,0,0,1,433.76,74.3L329.42,149.15c-11.49,8.24-50.31,18.34-56.22,10.09l-19.91-29.31c-5.9-8.22,15.48-41,26.94-49.21L386.83,4.25a36,36,0,0,1,29.53-2,49.87,49.87,0,0,1,29.17,41.16Z"/><ellipse class="cls-6" cx="363.29" cy="73.04" rx="20.26" ry="20.24" transform="translate(17.55 206.37) rotate(-32.46)"/><path class="cls-7" d="M344.69,97.51A108.15,108.15,0,0,1,352,85.63c2-2.77,2.54-3.33,5-6.7,5.88-8.08,7.87-12.41,8.43-12.15.75.36-2.74,8.52-7,23.41-1.64,5.75-2.62,9.8-2.48,9.84s1.59-5.1,4.5-12.33c1.52-3.78,2.23-5.11,3.34-7.71a101,101,0,0,0,5.61-17.47l2.64-19.36a64.38,64.38,0,0,1-3.86,10.31c-.76,1.59-1.4,2.76-1.78,3.46-4.5,8.19-10.68,17.85-14.17,24.09A117.48,117.48,0,0,0,344.69,97.51Z"/><text class="cls-8" transform="matrix(0.84, -0.54, 0.54, 0.84, 350.61, 85.75)">NESA</text><ellipse class="cls-3" cx="357.37" cy="67.32" rx="0.58" ry="0.44" transform="translate(141.77 360.18) rotate(-64.31)"/><ellipse class="cls-3" cx="355.38" cy="65.75" rx="0.91" ry="0.77" transform="translate(142.06 357.49) rotate(-64.31)"/><ellipse class="cls-3" cx="357.56" cy="64.99" rx="0.46" ry="0.33" transform="translate(143.98 359.03) rotate(-64.31)"/><ellipse class="cls-3" cx="353.46" cy="66.5" rx="0.25" ry="0.2" transform="translate(140.3 356.19) rotate(-64.31)"/><ellipse class="cls-3" cx="350.66" cy="66.16" rx="0.25" ry="0.2" transform="translate(139.02 353.47) rotate(-64.31)"/><ellipse class="cls-3" cx="352.01" cy="62.29" rx="0.25" ry="0.2" transform="translate(143.27 352.5) rotate(-64.31)"/><ellipse class="cls-3" cx="356.54" cy="63.35" rx="0.14" ry="0.11" transform="translate(144.89 357.18) rotate(-64.31)"/><ellipse class="cls-3" cx="356.13" cy="62.99" rx="0.14" ry="0.11" transform="translate(144.98 356.6) rotate(-64.31)"/><ellipse class="cls-3" cx="354.86" cy="64.2" rx="0.14" ry="0.11" transform="translate(143.17 356.15) rotate(-64.31)"/><ellipse class="cls-3" cx="355.96" cy="64.08" rx="0.14" ry="0.11" transform="translate(143.9 357.07) rotate(-64.31)"/><ellipse class="cls-3" cx="352.86" cy="61.79" rx="0.14" ry="0.11" transform="translate(144.21 352.98) rotate(-64.31)"/><ellipse class="cls-3" cx="353.41" cy="63.49" rx="0.14" ry="0.11" transform="translate(142.99 354.44) rotate(-64.31)"/><ellipse class="cls-3" cx="354.04" cy="64.12" rx="0.14" ry="0.11" transform="translate(142.77 355.36) rotate(-64.31)"/><ellipse class="cls-3" cx="353.35" cy="62.17" rx="0.14" ry="0.11" transform="translate(144.14 353.64) rotate(-64.31)"/><ellipse class="cls-3" cx="353.36" cy="65.29" rx="0.14" ry="0.11" transform="translate(141.34 355.41) rotate(-64.31)"/><ellipse class="cls-3" cx="355.13" cy="63.59" rx="0.14" ry="0.11" transform="translate(143.87 356.04) rotate(-64.31)"/><ellipse class="cls-3" cx="358.58" cy="63.76" rx="0.14" ry="0.11" transform="translate(145.67 359.25) rotate(-64.31)"/><ellipse class="cls-3" cx="356.32" cy="60.45" rx="0.14" ry="0.11" transform="translate(147.37 355.34) rotate(-64.31)"/><ellipse class="cls-3" cx="348.9" cy="61.57" rx="0.25" ry="0.2" transform="translate(142.16 349.29) rotate(-64.31)"/><ellipse class="cls-3" cx="348.67" cy="63.29" rx="0.25" ry="0.2" transform="translate(140.48 350.05) rotate(-64.31)"/><ellipse class="cls-3" cx="357.72" cy="61.55" rx="0.25" ry="0.2" transform="translate(147.17 357.22) rotate(-64.31)"/><ellipse class="cls-3" cx="354.7" cy="67.8" rx="0.61" ry="0.6" transform="translate(139.83 358.04) rotate(-64.31)"/><ellipse class="cls-3" cx="352.01" cy="64.82" rx="1" ry="0.85" transform="translate(141 353.93) rotate(-64.31)"/><ellipse class="cls-3" cx="351.59" cy="69.08" rx="0.61" ry="0.6" transform="translate(136.92 355.96) rotate(-64.31)"/><ellipse class="cls-3" cx="354.79" cy="62.5" rx="0.85" ry="0.75" transform="translate(144.66 355.12) rotate(-64.31)"/><ellipse class="cls-3" cx="371.38" cy="83.56" rx="0.28" ry="0.32" transform="translate(13.17 212.36) rotate(-32.46)"/><ellipse class="cls-3" cx="372.87" cy="82.97" rx="0.49" ry="0.5" transform="translate(13.71 213.06) rotate(-32.46)"/><ellipse class="cls-3" cx="372.47" cy="84.28" rx="0.21" ry="0.25" transform="translate(12.95 213.06) rotate(-32.46)"/><ellipse class="cls-3" cx="373.17" cy="81.8" rx="0.13" ry="0.14" transform="matrix(0.84, -0.54, 0.54, 0.84, 14.39, 213.05)"/><ellipse class="cls-3" cx="374.34" cy="80.47" rx="0.13" ry="0.14" transform="translate(15.29 213.46) rotate(-32.46)"/><ellipse class="cls-3" cx="375.78" cy="82.2" rx="0.13" ry="0.14" transform="translate(14.58 214.51) rotate(-32.46)"/><ellipse class="cls-3" cx="373.65" cy="84.21" rx="0.07" ry="0.07" transform="translate(13.17 213.68) rotate(-32.46)"/><ellipse class="cls-3" cx="373.97" cy="84.1" rx="0.07" ry="0.07" transform="translate(13.28 213.83) rotate(-32.46)"/><ellipse class="cls-3" cx="373.82" cy="83.13" rx="0.07" ry="0.07" transform="translate(13.78 213.6) rotate(-32.46)"/><ellipse class="cls-3" cx="373.49" cy="83.72" rx="0.07" ry="0.07" transform="translate(13.41 213.52) rotate(-32.46)"/><ellipse class="cls-3" cx="375.73" cy="82.77" rx="0.07" ry="0.07" transform="translate(14.27 214.57) rotate(-32.46)"/><ellipse class="cls-3" cx="374.69" cy="82.59" rx="0.07" ry="0.07" transform="translate(14.2 213.98) rotate(-32.46)"/><ellipse class="cls-3" cx="374.15" cy="82.73" rx="0.07" ry="0.07" transform="translate(14.04 213.72) rotate(-32.46)"/><ellipse class="cls-3" cx="375.36" cy="82.91" rx="0.07" ry="0.07" transform="translate(14.14 214.39) rotate(-32.46)"/><ellipse class="cls-3" cx="373.81" cy="82.08" rx="0.07" ry="0.07" transform="translate(14.34 213.43) rotate(-32.46)"/><ellipse class="cls-3" cx="374.03" cy="83.43" rx="0.07" ry="0.07" transform="translate(13.65 213.76) rotate(-32.46)"/><ellipse class="cls-3" cx="372.72" cy="85.14" rx="0.07" ry="0.07" transform="translate(12.53 213.32) rotate(-32.46)"/><ellipse class="cls-3" cx="375.17" cy="84.88" rx="0.07" ry="0.07" transform="translate(13.05 214.6) rotate(-32.46)"/><ellipse class="cls-3" cx="377.24" cy="80.81" rx="0.13" ry="0.14" transform="translate(15.56 215.07) rotate(-32.46)"/><ellipse class="cls-3" cx="376.47" cy="80.23" rx="0.13" ry="0.14" transform="translate(15.75 214.57) rotate(-32.46)"/><ellipse class="cls-3" cx="374.12" cy="85.29" rx="0.13" ry="0.14" transform="translate(12.67 214.1) rotate(-32.46)"/><ellipse class="cls-3" cx="372.09" cy="82.08" rx="0.38" ry="0.34" transform="translate(14.07 212.51) rotate(-32.46)"/><ellipse class="cls-3" cx="374.53" cy="81.52" rx="0.54" ry="0.55" transform="translate(14.75 213.73) rotate(-32.46)"/><ellipse class="cls-3" cx="372.56" cy="80.16" rx="0.38" ry="0.34" transform="matrix(0.84, -0.54, 0.54, 0.84, 15.18, 212.46)"/><ellipse class="cls-3" cx="374.69" cy="83.55" rx="0.48" ry="0.46" transform="translate(13.69 214.13) rotate(-32.46)"/><path class="cls-9" d="M355.79,70.38a3.2,3.2,0,0,1-.23.72c-.59-.61-2.11-2.43-2.69-3a1.39,1.39,0,0,1-.21-.4c-.15-.38,0-.6.43-.55a7.07,7.07,0,0,1,1.4.26,30.76,30.76,0,0,1,5.64,2.6c1.64.94,3.25,1.93,4.86,2.93.8.5,1.58,1,2.34,1.61a23.38,23.38,0,0,1,3.16,2.62,12.63,12.63,0,0,1,.91,1.14.47.47,0,0,1,.08.58c-.14.22-.38.17-.6.15a11,11,0,0,1-2.84-.87l-.39-.16c0-.12.16-.42.21-.27.68.22.87.25,1.56.44.24.07.54.13.72-.14s0-.48-.14-.66a10,10,0,0,0-1.07-1.18c-.73-.64-1.49-1.24-2.26-1.83a47.82,47.82,0,0,0-5-3.28,36.9,36.9,0,0,0-5.46-2.69,10.21,10.21,0,0,0-1.65-.41.68.68,0,0,0-.55.17.57.57,0,0,0,.06.53,9.22,9.22,0,0,0,.64.79"/><polygon class="cls-10" points="450.91 390.06 391.96 389.89 373.39 173.79 416.71 196.26 450.91 390.06"/><polygon class="cls-10" points="263.55 390.36 336.93 389.54 339.16 179.76 290.76 204.02 263.55 390.36"/><polygon class="cls-11" points="335.92 389.91 389.7 390.36 371.82 201.42 337.55 203.05 335.92 389.91"/><path class="cls-1" d="M402.6,208.83h-9.79c-8.31,0-15.3-4.35-16.31-10.12l-9.3-53c-1.49-8.54,10.42-15.18,22-12.24h0c5.14,1.31,9,4.31,10.34,8l19.1,53.06C421.22,201.78,413.34,208.85,402.6,208.83Z"/><path class="cls-12" d="M421.12,7.32,285.78,104.48A42.32,42.32,0,0,1,308.46,134L442.29,36.06A36.24,36.24,0,0,0,421.12,7.32Z"/><ellipse class="cls-13" cx="214.81" cy="182.21" rx="5.04" ry="4.65"/><ellipse class="cls-14" cx="285.02" cy="137.12" rx="5.04" ry="4.65"/><ellipse class="cls-15" cx="278.37" cy="132.78" rx="26.75" ry="31.65" transform="translate(-25.21 187.15) rotate(-35.65)"/><path class="cls-16" d="M227.26,204.88c-2.78-.27-18.68-2.06-28.66-16-9.63-13.47-6.76-28.46-6.14-31.36l75.07-55.11a47.16,47.16,0,0,1,34.8,47.4Z"/><path class="cls-17" d="M276,117.51l-64.46,47.28A26.57,26.57,0,0,1,229.28,189l64.45-47.28A23,23,0,0,0,276,117.51Z"/><path class="cls-18" d="M143.18,261.94c-2.66.18-17.81,1-25.39-9.72-7.31-10.35-2.26-23.9-1.23-26.54l81.17-59.58c4.11.43,15.34,2.19,22.21,11.46s5.22,20.76,4.41,24.79Z"/><path class="cls-4" d="M57.93,314.37c-2.35.6-6.85-3.32-11.61-10.22-4.59-6.65-6.73-10.72-5.37-12.91l81.17-59.58c3.51-.38,13.07,1.54,17.47,7.44s.92,12.46-.49,15.69Z"/><path class="cls-19" d="M55.46,316.85a3.37,3.37,0,0,1-5-1.18c-1-1.82-1.18-3.17.6-4.79,27.06-19.86,61.51-50.61,88.56-70.47,2.74-1.44,1.74,7.06,2.9,8.56s-3.73,6.12-5.91,8.29Z"/><path class="cls-20" d="M2.68,278.11,50.2,314.55A7.78,7.78,0,0,0,62.71,308L61,274.07a1.47,1.47,0,0,0-1.54-1.4l-56,2.81A1.47,1.47,0,0,0,2.68,278.11Z"/><path class="cls-21" d="M197.5,173l-63.95,48a26.55,26.55,0,0,1,18,24l63.94-48a23.05,23.05,0,0,0-18-24Z"/><path class="cls-1" d="M414.87,71.06l-89.7,57.48,32.34,7.07,45.36-29.06a12.47,12.47,0,0,0,5.4-7.63Z"/><ellipse class="cls-2" cx="378.05" cy="127.05" rx="17.29" ry="16.96"/><ellipse class="cls-22" cx="378.67" cy="125.62" rx="9.69" ry="9.42"/><path class="cls-23" d="M296.47,310.65l83.27-6.09,5.48,85.18h6.41L373.39,173.79l-80.45,4.88L264.29,389.89l9.6,0,9.92-82.12,75.69,82,17.86,0Zm76.17-110,5.71,87.31-83.52-81.7ZM281.8,299.2l11.69-85.54,75.83,81Z"/></g></g></svg>